<svg xmlns="http://www.w3.org/2000/svg" viewBox="0 0 800 600">
  <!-- Background -->
  <rect width="800" height="600" fill="#f6f8fa" rx="15" ry="15"/>
  
  <!-- GitHub logo styling -->
  <g transform="translate(400, 140) scale(3)">
    <path d="M12 0c-6.626 0-12 5.373-12 12 0 5.302 3.438 9.8 8.207 11.387.599.111.793-.261.793-.577v-2.234c-3.338.726-4.033-1.416-4.033-1.416-.546-1.387-1.333-1.756-1.333-1.756-1.089-.745.083-.729.083-.729 1.205.084 1.839 1.237 1.839 1.237 1.07 1.834 2.807 1.304 3.492.997.107-.775.418-1.305.762-1.604-2.665-.305-5.467-1.334-5.467-5.931 0-1.311.469-2.381 1.236-3.221-.124-.303-.535-1.524.117-3.176 0 0 1.008-.322 3.301 1.23.957-.266 1.983-.399 3.003-.404 1.02.005 2.047.138 3.006.404 2.291-1.552 3.297-1.23 3.297-1.23.653 1.653.242 2.874.118 3.176.77.84 1.235 1.911 1.235 3.221 0 4.609-2.807 5.624-5.479 5.921.43.372.823 1.102.823 2.222v3.293c0 .319.192.694.801.576 4.765-1.589 8.199-6.086 8.199-11.386 0-6.627-5.373-12-12-12z" fill="#24292e"/>
  </g>
  
  <!-- Dashboard elements -->
  <!-- Line chart -->
  <g transform="translate(150, 270)">
    <rect width="500" height="250" fill="white" rx="8" ry="8" stroke="#e1e4e8" stroke-width="2"/>
    
    <!-- Chart grid -->
    <line x1="50" y1="50" x2="50" y2="200" stroke="#e1e4e8" stroke-width="1"/>
    <line x1="150" y1="50" x2="150" y2="200" stroke="#e1e4e8" stroke-width="1"/>
    <line x1="250" y1="50" x2="250" y2="200" stroke="#e1e4e8" stroke-width="1"/>
    <line x1="350" y1="50" x2="350" y2="200" stroke="#e1e4e8" stroke-width="1"/>
    <line x1="450" y1="50" x2="450" y2="200" stroke="#e1e4e8" stroke-width="1"/>
    
    <line x1="50" y1="50" x2="450" y2="50" stroke="#e1e4e8" stroke-width="1"/>
    <line x1="50" y1="100" x2="450" y2="100" stroke="#e1e4e8" stroke-width="1"/>
    <line x1="50" y1="150" x2="450" y2="150" stroke="#e1e4e8" stroke-width="1"/>
    <line x1="50" y1="200" x2="450" y2="200" stroke="#e1e4e8" stroke-width="1"/>
    
    <!-- Line chart data -->
    <polyline 
      points="50,180 100,150 150,140 200,100 250,120 300,80 350,60 400,90 450,70" 
      fill="none" 
      stroke="#2188ff" 
      stroke-width="3"
      stroke-linecap="round"
      stroke-linejoin="round"
    />
    
    <!-- Data points -->
    <circle cx="50" cy="180" r="5" fill="#2188ff"/>
    <circle cx="100" cy="150" r="5" fill="#2188ff"/>
    <circle cx="150" cy="140" r="5" fill="#2188ff"/>
    <circle cx="200" cy="100" r="5" fill="#2188ff"/>
    <circle cx="250" cy="120" r="5" fill="#2188ff"/>
    <circle cx="300" cy="80" r="5" fill="#2188ff"/>
    <circle cx="350" cy="60" r="5" fill="#2188ff"/>
    <circle cx="400" cy="90" r="5" fill="#2188ff"/>
    <circle cx="450" cy="70" r="5" fill="#2188ff"/>
    
    <!-- Chart title -->
    <text x="250" y="30" font-family="Arial, sans-serif" font-size="16" font-weight="bold" text-anchor="middle" fill="#24292e">Repository Traffic Analytics</text>
    
    <!-- Legend -->
    <rect x="350" y="220" width="15" height="15" fill="#2188ff" rx="2" ry="2"/>
    <text x="375" y="233" font-family="Arial, sans-serif" font-size="14" fill="#24292e">Views</text>
    
    <circle cx="300" cy="227" r="7" fill="#6f42c1"/>
    <text x="315" y="233" font-family="Arial, sans-serif" font-size="14" fill="#24292e">Clones</text>
  </g>
  
  <!-- Analytics cards -->
  <g transform="translate(180, 200)">
    <rect width="120" height="60" fill="#ffffff" rx="6" ry="6" stroke="#e1e4e8" stroke-width="2"/>
    <text x="60" y="30" font-family="Arial, sans-serif" font-size="20" font-weight="bold" text-anchor="middle" fill="#24292e">127</text>
    <text x="60" y="48" font-family="Arial, sans-serif" font-size="12" text-anchor="middle" fill="#586069">Daily Views</text>
  </g>
  
  <g transform="translate(340, 200)">
    <rect width="120" height="60" fill="#ffffff" rx="6" ry="6" stroke="#e1e4e8" stroke-width="2"/>
    <text x="60" y="30" font-family="Arial, sans-serif" font-size="20" font-weight="bold" text-anchor="middle" fill="#24292e">43</text>
    <text x="60" y="48" font-family="Arial, sans-serif" font-size="12" text-anchor="middle" fill="#586069">Unique Visitors</text>
  </g>
  
  <g transform="translate(500, 200)">
    <rect width="120" height="60" fill="#ffffff" rx="6" ry="6" stroke="#e1e4e8" stroke-width="2"/>
    <text x="60" y="30" font-family="Arial, sans-serif" font-size="20" font-weight="bold" text-anchor="middle" fill="#24292e">18</text>
    <text x="60" y="48" font-family="Arial, sans-serif" font-size="12" text-anchor="middle" fill="#586069">Clones</text>
  </g>
  
  <!-- Title -->
  <text x="400" y="80" font-family="Arial, sans-serif" font-size="28" font-weight="bold" text-anchor="middle" fill="#24292e">GitHub Traffic Dashboard</text>
</svg>
